SolveFromPy_states
version=1
nRows=4
nColumns=195
inDegrees=yes

# SIMM Motion File Header:
name SolveFromPy_states
datacolumns 195
datarows 4
otherdata 1
range 0.34536607 0.34558901
endheader
time	/jointset/ground_platform/platform_rx/value	/jointset/ground_platform/platform_rx/speed	/jointset/ground_platform/platform_ry/value	/jointset/ground_platform/platform_ry/speed	/jointset/ground_platform/platform_rz/value	/jointset/ground_platform/platform_rz/speed	/jointset/ground_platform/platform_ty/value	/jointset/ground_platform/platform_ty/speed	/jointset/ground_pelvis/pelvis_tilt/value	/jointset/ground_pelvis/pelvis_tilt/speed	/jointset/ground_pelvis/pelvis_list/value	/jointset/ground_pelvis/pelvis_list/speed	/jointset/ground_pelvis/pelvis_rotation/value	/jointset/ground_pelvis/pelvis_rotation/speed	/jointset/ground_pelvis/pelvis_tx/value	/jointset/ground_pelvis/pelvis_tx/speed	/jointset/ground_pelvis/pelvis_ty/value	/jointset/ground_pelvis/pelvis_ty/speed	/jointset/ground_pelvis/pelvis_tz/value	/jointset/ground_pelvis/pelvis_tz/speed	/jointset/hip_r/hip_flexion_r/value	/jointset/hip_r/hip_flexion_r/speed	/jointset/hip_r/hip_adduction_r/value	/jointset/hip_r/hip_adduction_r/speed	/jointset/hip_r/hip_rotation_r/value	/jointset/hip_r/hip_rotation_r/speed	/jointset/knee_r/knee_angle_r/value	/jointset/knee_r/knee_angle_r/speed	/jointset/ankle_r/ankle_angle_r/value	/jointset/ankle_r/ankle_angle_r/speed	/jointset/subtalar_r/subtalar_angle_r/value	/jointset/subtalar_r/subtalar_angle_r/speed	/jointset/mtp_r/mtp_angle_r/value	/jointset/mtp_r/mtp_angle_r/speed	/jointset/hip_l/hip_flexion_l/value	/jointset/hip_l/hip_flexion_l/speed	/jointset/hip_l/hip_adduction_l/value	/jointset/hip_l/hip_adduction_l/speed	/jointset/hip_l/hip_rotation_l/value	/jointset/hip_l/hip_rotation_l/speed	/jointset/knee_l/knee_angle_l/value	/jointset/knee_l/knee_angle_l/speed	/jointset/ankle_l/ankle_angle_l/value	/jointset/ankle_l/ankle_angle_l/speed	/jointset/subtalar_l/subtalar_angle_l/value	/jointset/subtalar_l/subtalar_angle_l/speed	/jointset/mtp_l/mtp_angle_l/value	/jointset/mtp_l/mtp_angle_l/speed	/jointset/back/lumbar_extension/value	/jointset/back/lumbar_extension/speed	/jointset/back/lumbar_bending/value	/jointset/back/lumbar_bending/speed	/jointset/back/lumbar_rotation/value	/jointset/back/lumbar_rotation/speed	/forceset/glut_med1_r/activation	/forceset/glut_med1_r/fiber_length	/forceset/glut_med2_r/activation	/forceset/glut_med2_r/fiber_length	/forceset/glut_med3_r/activation	/forceset/glut_med3_r/fiber_length	/forceset/bifemlh_r/activation	/forceset/bifemlh_r/fiber_length	/forceset/bifemsh_r/activation	/forceset/bifemsh_r/fiber_length	/forceset/sar_r/activation	/forceset/sar_r/fiber_length	/forceset/add_mag2_r/activation	/forceset/add_mag2_r/fiber_length	/forceset/tfl_r/activation	/forceset/tfl_r/fiber_length	/forceset/pect_r/activation	/forceset/pect_r/fiber_length	/forceset/grac_r/activation	/forceset/grac_r/fiber_length	/forceset/glut_max1_r/activation	/forceset/glut_max1_r/fiber_length	/forceset/glut_max2_r/activation	/forceset/glut_max2_r/fiber_length	/forceset/glut_max3_r/activation	/forceset/glut_max3_r/fiber_length	/forceset/iliacus_r/activation	/forceset/iliacus_r/fiber_length	/forceset/psoas_r/activation	/forceset/psoas_r/fiber_length	/forceset/quad_fem_r/activation	/forceset/quad_fem_r/fiber_length	/forceset/gem_r/activation	/forceset/gem_r/fiber_length	/forceset/peri_r/activation	/forceset/peri_r/fiber_length	/forceset/rect_fem_r/activation	/forceset/rect_fem_r/fiber_length	/forceset/vas_int_r/activation	/forceset/vas_int_r/fiber_length	/forceset/med_gas_r/activation	/forceset/med_gas_r/fiber_length	/forceset/lat_gas_r/activation	/forceset/lat_gas_r/fiber_length	/forceset/soleus_r/activation	/forceset/soleus_r/fiber_length	/forceset/tib_post_r/activation	/forceset/tib_post_r/fiber_length	/forceset/flex_dig_r/activation	/forceset/flex_dig_r/fiber_length	/forceset/flex_hal_r/activation	/forceset/flex_hal_r/fiber_length	/forceset/tib_ant_r/activation	/forceset/tib_ant_r/fiber_length	/forceset/per_brev_r/activation	/forceset/per_brev_r/fiber_length	/forceset/per_long_r/activation	/forceset/per_long_r/fiber_length	/forceset/per_tert_r/activation	/forceset/per_tert_r/fiber_length	/forceset/ext_dig_r/activation	/forceset/ext_dig_r/fiber_length	/forceset/ext_hal_r/activation	/forceset/ext_hal_r/fiber_length	/forceset/glut_med1_l/activation	/forceset/glut_med1_l/fiber_length	/forceset/glut_med2_l/activation	/forceset/glut_med2_l/fiber_length	/forceset/glut_med3_l/activation	/forceset/glut_med3_l/fiber_length	/forceset/bifemlh_l/activation	/forceset/bifemlh_l/fiber_length	/forceset/bifemsh_l/activation	/forceset/bifemsh_l/fiber_length	/forceset/sar_l/activation	/forceset/sar_l/fiber_length	/forceset/add_mag2_l/activation	/forceset/add_mag2_l/fiber_length	/forceset/tfl_l/activation	/forceset/tfl_l/fiber_length	/forceset/pect_l/activation	/forceset/pect_l/fiber_length	/forceset/grac_l/activation	/forceset/grac_l/fiber_length	/forceset/glut_max1_l/activation	/forceset/glut_max1_l/fiber_length	/forceset/glut_max2_l/activation	/forceset/glut_max2_l/fiber_length	/forceset/glut_max3_l/activation	/forceset/glut_max3_l/fiber_length	/forceset/iliacus_l/activation	/forceset/iliacus_l/fiber_length	/forceset/psoas_l/activation	/forceset/psoas_l/fiber_length	/forceset/quad_fem_l/activation	/forceset/quad_fem_l/fiber_length	/forceset/gem_l/activation	/forceset/gem_l/fiber_length	/forceset/peri_l/activation	/forceset/peri_l/fiber_length	/forceset/rect_fem_l/activation	/forceset/rect_fem_l/fiber_length	/forceset/vas_int_l/activation	/forceset/vas_int_l/fiber_length	/forceset/med_gas_l/activation	/forceset/med_gas_l/fiber_length	/forceset/lat_gas_l/activation	/forceset/lat_gas_l/fiber_length	/forceset/soleus_l/activation	/forceset/soleus_l/fiber_length	/forceset/tib_post_l/activation	/forceset/tib_post_l/fiber_length	/forceset/flex_dig_l/activation	/forceset/flex_dig_l/fiber_length	/forceset/flex_hal_l/activation	/forceset/flex_hal_l/fiber_length	/forceset/tib_ant_l/activation	/forceset/tib_ant_l/fiber_length	/forceset/per_brev_l/activation	/forceset/per_brev_l/fiber_length	/forceset/per_long_l/activation	/forceset/per_long_l/fiber_length	/forceset/per_tert_l/activation	/forceset/per_tert_l/fiber_length	/forceset/ext_dig_l/activation	/forceset/ext_dig_l/fiber_length	/forceset/ext_hal_l/activation	/forceset/ext_hal_l/fiber_length	/forceset/ercspn_r/activation	/forceset/ercspn_r/fiber_length	/forceset/ercspn_l/activation	/forceset/ercspn_l/fiber_length	/forceset/intobl_r/activation	/forceset/intobl_r/fiber_length	/forceset/intobl_l/activation	/forceset/intobl_l/fiber_length	/forceset/extobl_r/activation	/forceset/extobl_r/fiber_length	/forceset/extobl_l/activation	/forceset/extobl_l/fiber_length
      0.34536607	     20.00000000	      0.00000000	      0.00000000	      0.00000000	     -0.00000000	     -0.00000000	      0.25000000	      0.00000000	     -6.99830147	     16.15274891	     -0.06961184	    -47.40616073	      0.18093177	    -80.11296011	      0.05072499	     -0.16360739	      1.09351792	     -3.28822697	      0.00281449	      0.21698455	     19.79453385	    534.95619848	      1.13662378	    202.53083291	      4.55415859	    264.44078515	    -39.83827156	  -1656.80749211	    185.44500751	   5427.48395968	      8.39374077	    422.44273604	      0.00000000	      0.00000000	    -19.99999998	     -0.00000000	     10.00000028	     -0.00000000	      4.99999985	      0.00000000	   -119.99999986	     -0.00000000	     11.49999977	     -0.00000000	     -0.03000064	     -0.00000000	     -0.00000000	      0.00000000	     -5.93617827	    -38.94115568	     -0.55939288	     38.25197704	      1.64937041	     88.84288421	     -0.01902368	      0.04567231	     -0.01902368	      0.08545086	     -0.01902368	      0.06982391	     -0.01902368	      0.09335479	     -0.01902368	      0.15709115	     -0.01902368	      0.44733725	     -0.01902368	      0.07941866	     -0.01902368	      0.10198254	     -0.01902368	      0.06277995	     -0.01902368	      0.29780282	     -0.01902368	      0.09161925	     -0.01902368	      0.10183745	     -0.01902368	      0.11628178	     -0.01902368	      0.09521531	     -0.01902368	      0.08961415	     -0.01902368	      0.04989508	     -0.01902368	      0.02779954	     -0.01902368	      0.02658503	     -0.01902368	      0.11741138	     -0.01902368	      0.09698771	     -0.01902368	      0.09145613	     -0.01902368	      0.06524179	     -0.01902368	      0.08130636	     -0.01902368	      0.03261828	     -0.01902368	      0.03359650	     -0.01902368	      0.04350691	     -0.01902368	      0.10584037	     -0.01902368	      0.04857471	     -0.01902368	      0.05025651	     -0.01902368	      0.10198213	     -0.01902368	      0.13578612	     -0.01902368	      0.14415733	     -0.01902368	      0.04646954	     -0.01902368	      0.07924345	     -0.01902368	      0.06066849	     -0.01902368	      0.02207317	     -0.01902368	      0.12238178	     -0.01902368	      0.45556126	     -0.01902368	      0.05828642	     -0.01902368	      0.13391495	     -0.01902368	      0.07307389	     -0.01902368	      0.24301553	     -0.01902368	      0.06638073	     -0.01902368	      0.06554424	     -0.01902368	      0.05770037	     -0.01902368	      0.11895704	     -0.01902368	      0.11276383	     -0.01902368	      0.04385542	     -0.01902368	      0.02477863	     -0.01902368	      0.02332643	     -0.01902368	      0.18252185	     -0.01902368	      0.13945923	     -0.01902368	      0.06773758	     -0.01902368	      0.04190363	     -0.01902368	      0.08593352	     -0.01902368	      0.03561976	     -0.01902368	      0.03422656	     -0.01902368	      0.04262205	     -0.01902368	      0.07211219	     -0.01902368	      0.05030461	     -0.01902368	      0.05155972	     -0.01902368	      0.07464108	     -0.01902368	      0.08888361	     -0.01902368	      0.09641128	     -0.01902368	      0.12396814	     -0.01902368	      0.12377016	     -0.01902368	      0.09546209	     -0.01902368	      0.09138073	     -0.01902368	      0.12646713	     -0.01902368	      0.12680218
      0.34543289	     20.00000000	      0.00000000	      0.00000000	      0.00000000	     -0.00000000	     -0.00000000	      0.25000000	      0.00000000	     -6.99722348	     16.11055065	     -0.07277336	    -47.21516939	      0.17558215	    -79.99605716	      0.05071406	     -0.16344872	      1.09329815	     -3.28944312	      0.00282899	      0.21718154	     19.83029749	    535.41761726	      1.15016375	    202.70810329	      4.57181108	    263.88064790	    -39.94909878	  -1660.15779744	    185.80810767	   5439.79531270	      8.42196694	    422.33413269	      0.00000000	      0.00000000	    -19.99999998	     -0.00000000	     10.00000028	     -0.00000000	      4.99999985	      0.00000000	   -119.99999986	     -0.00000000	     11.49999977	     -0.00000000	     -0.03000064	     -0.00000000	     -0.00000000	      0.00000000	     -5.93877810	    -38.86935736	     -0.55684571	     37.98234940	      1.65530180	     88.67801268	     -0.01903228	      0.04567484	     -0.01903228	      0.08546802	     -0.01903228	      0.06984905	     -0.01903228	      0.09333604	     -0.01903228	      0.15706138	     -0.01903228	      0.44728577	     -0.01903228	      0.07942597	     -0.01903228	      0.10197699	     -0.01903228	      0.06276275	     -0.01903228	      0.29774225	     -0.01903228	      0.09165307	     -0.01903228	      0.10187662	     -0.01903228	      0.11632440	     -0.01903228	      0.09519810	     -0.01903228	      0.08959694	     -0.01903228	      0.04991014	     -0.01903228	      0.02781046	     -0.01903228	      0.02660058	     -0.01903228	      0.11747017	     -0.01903228	      0.09706962	     -0.01903228	      0.09142653	     -0.01903228	      0.06521860	     -0.01903228	      0.08127992	     -0.01903228	      0.03259505	     -0.01903228	      0.03359065	     -0.01903228	      0.04349468	     -0.01903228	      0.10599666	     -0.01903228	      0.04856610	     -0.01903228	      0.05023546	     -0.01903228	      0.10231574	     -0.01903228	      0.13587466	     -0.01903228	      0.14424597	     -0.01903228	      0.04646954	     -0.01903228	      0.07924345	     -0.01903228	      0.06066849	     -0.01903228	      0.02207317	     -0.01903228	      0.12238178	     -0.01903228	      0.45556126	     -0.01903228	      0.05828642	     -0.01903228	      0.13391495	     -0.01903228	      0.07307389	     -0.01903228	      0.24301553	     -0.01903228	      0.06638073	     -0.01903228	      0.06554424	     -0.01903228	      0.05770037	     -0.01903228	      0.11895704	     -0.01903228	      0.11276383	     -0.01903228	      0.04385542	     -0.01903228	      0.02477863	     -0.01903228	      0.02332643	     -0.01903228	      0.18252185	     -0.01903228	      0.13945923	     -0.01903228	      0.06773758	     -0.01903228	      0.04190363	     -0.01903228	      0.08593352	     -0.01903228	      0.03561976	     -0.01903228	      0.03422657	     -0.01903228	      0.04262205	     -0.01903228	      0.07211219	     -0.01903228	      0.05030461	     -0.01903228	      0.05155972	     -0.01903228	      0.07464108	     -0.01903228	      0.08888361	     -0.01903228	      0.09641128	     -0.01903228	      0.12396721	     -0.01903228	      0.12377476	     -0.01903228	      0.09545878	     -0.01903228	      0.09137954	     -0.01903228	      0.12645811	     -0.01903228	      0.12680544
      0.34549971	     20.00000000	      0.00000000	      0.00000000	      0.00000000	     -0.00000000	     -0.00000000	      0.25000000	      0.00000000	     -6.99614832	     16.06807612	     -0.07592206	    -47.02224962	      0.17024042	    -79.87703891	      0.05070314	     -0.16328592	      1.09307829	     -3.29066487	      0.00284351	      0.21737617	     19.86609181	    535.87482201	      1.16371546	    202.88239080	      4.58942579	    263.31014756	    -40.06015038	  -1663.52312628	    186.17203233	   5452.16236265	      8.45018476	    422.19357267	      0.00000000	      0.00000000	    -19.99999998	     -0.00000000	     10.00000028	     -0.00000000	      4.99999985	      0.00000000	   -119.99999986	     -0.00000000	     11.49999977	     -0.00000000	     -0.03000064	     -0.00000000	     -0.00000000	      0.00000000	     -5.94137310	    -38.79655632	     -0.55431663	     37.71056334	      1.66122209	     88.51068853	     -0.01904089	      0.04567736	     -0.01904089	      0.08548520	     -0.01904089	      0.06987421	     -0.01904089	      0.09331728	     -0.01904089	      0.15703161	     -0.01904089	      0.44723415	     -0.01904089	      0.07943330	     -0.01904089	      0.10197142	     -0.01904089	      0.06274554	     -0.01904089	      0.29768168	     -0.01904089	      0.09168689	     -0.01904089	      0.10191581	     -0.01904089	      0.11636704	     -0.01904089	      0.09518090	     -0.01904089	      0.08957973	     -0.01904089	      0.04992513	     -0.01904089	      0.02782138	     -0.01904089	      0.02661611	     -0.01904089	      0.11752905	     -0.01904089	      0.09715165	     -0.01904089	      0.09139723	     -0.01904089	      0.06519565	     -0.01904089	      0.08125376	     -0.01904089	      0.03257213	     -0.01904089	      0.03358480	     -0.01904089	      0.04348257	     -0.01904089	      0.10615246	     -0.01904089	      0.04855750	     -0.01904089	      0.05021465	     -0.01904089	      0.10233361	     -0.01904089	      0.13596442	     -0.01904089	      0.14433555	     -0.01904089	      0.04646954	     -0.01904089	      0.07924345	     -0.01904089	      0.06066849	     -0.01904089	      0.02207317	     -0.01904089	      0.12238178	     -0.01904089	      0.45556126	     -0.01904089	      0.05828642	     -0.01904089	      0.13391495	     -0.01904089	      0.07307389	     -0.01904089	      0.24301553	     -0.01904089	      0.06638073	     -0.01904089	      0.06554424	     -0.01904089	      0.05770037	     -0.01904089	      0.11895704	     -0.01904089	      0.11276383	     -0.01904089	      0.04385542	     -0.01904089	      0.02477863	     -0.01904089	      0.02332643	     -0.01904089	      0.18252185	     -0.01904089	      0.13945923	     -0.01904089	      0.06773758	     -0.01904089	      0.04190363	     -0.01904089	      0.08593352	     -0.01904089	      0.03561976	     -0.01904089	      0.03422657	     -0.01904089	      0.04262206	     -0.01904089	      0.07211219	     -0.01904089	      0.05030461	     -0.01904089	      0.05155972	     -0.01904089	      0.07464108	     -0.01904089	      0.08888361	     -0.01904089	      0.09641128	     -0.01904089	      0.12396629	     -0.01904089	      0.12377934	     -0.01904089	      0.09545549	     -0.01904089	      0.09137833	     -0.01904089	      0.12644912	     -0.01904089	      0.12680868
      0.34558901	     20.00000000	      0.00000000	      0.00000000	      0.00000000	     -0.00000000	     -0.00000000	      0.25000000	      0.00000000	     -6.99471603	     16.01089928	     -0.08010939	    -46.76143753	      0.16311486	    -79.71461288	      0.05068857	     -0.16306185	      1.09278437	     -3.29230616	      0.00286293	      0.21763207	     19.91397085	    536.47889051	      1.18184246	    203.11018427	      4.61290384	    262.52868772	    -40.20889957	  -1668.04136571	    186.65963415	   5468.75296469	      8.48787467	    421.94487711	      0.00000000	      0.00000000	    -19.99999998	     -0.00000000	     10.00000028	     -0.00000000	      4.99999985	      0.00000000	   -119.99999986	     -0.00000000	     11.49999977	     -0.00000000	     -0.03000064	     -0.00000000	     -0.00000000	      0.00000000	     -5.94483312	    -38.69771504	     -0.55096552	     37.34405534	      1.66911571	     88.28319251	     -0.01905238	      0.04568074	     -0.01905238	      0.08550816	     -0.01905238	      0.06990781	     -0.01905238	      0.09329222	     -0.01905238	      0.15699183	     -0.01905238	      0.44716493	     -0.01905238	      0.07944314	     -0.01905238	      0.10196394	     -0.01905238	      0.06272254	     -0.01905238	      0.29760074	     -0.01905238	      0.09173210	     -0.01905238	      0.10196819	     -0.01905238	      0.11642404	     -0.01905238	      0.09515790	     -0.01905238	      0.08955674	     -0.01905238	      0.04994513	     -0.01905238	      0.02783594	     -0.01905238	      0.02663686	     -0.01905238	      0.11760785	     -0.01905238	      0.09726147	     -0.01905238	      0.09135855	     -0.01905238	      0.06516535	     -0.01905238	      0.08121922	     -0.01905238	      0.03254196	     -0.01905238	      0.03357698	     -0.01905238	      0.04346658	     -0.01905238	      0.10635988	     -0.01905238	      0.04854600	     -0.01905238	      0.05018720	     -0.01905238	      0.10244633	     -0.01905238	      0.13608402	     -0.01905238	      0.14445476	     -0.01905238	      0.04646954	     -0.01905238	      0.07924345	     -0.01905238	      0.06066849	     -0.01905238	      0.02207317	     -0.01905238	      0.12238178	     -0.01905238	      0.45556126	     -0.01905238	      0.05828642	     -0.01905238	      0.13391495	     -0.01905238	      0.07307389	     -0.01905238	      0.24301553	     -0.01905238	      0.06638073	     -0.01905238	      0.06554424	     -0.01905238	      0.05770037	     -0.01905238	      0.11895704	     -0.01905238	      0.11276383	     -0.01905238	      0.04385542	     -0.01905238	      0.02477863	     -0.01905238	      0.02332643	     -0.01905238	      0.18252185	     -0.01905238	      0.13945923	     -0.01905238	      0.06773758	     -0.01905238	      0.04190363	     -0.01905238	      0.08593352	     -0.01905238	      0.03561976	     -0.01905238	      0.03422658	     -0.01905238	      0.04262207	     -0.01905238	      0.07211219	     -0.01905238	      0.05030461	     -0.01905238	      0.05155972	     -0.01905238	      0.07464108	     -0.01905238	      0.08888361	     -0.01905238	      0.09641128	     -0.01905238	      0.12396507	     -0.01905238	      0.12378544	     -0.01905238	      0.09545112	     -0.01905238	      0.09137670	     -0.01905238	      0.12643714	     -0.01905238	      0.12681299
